<svg xmlns="http://www.w3.org/2000/svg" xmlns:xlink="http://www.w3.org/1999/xlink" viewBox="0 0 795.833 175" id="POM-Logo" width="100%" height="100%">
    <path d="M40.98 24.524h26.857c5.25 0 6.765 2.12 6.765 4.847v.202c0 2.524-1.515 4.846-6.765 4.846H40.98v-9.894zM77.23 57.136c28.674 0 36.852-12.22 36.852-26.353v-2.625c0-14.134-7.774-25.644-36.852-25.644H2.616V77.63h38.366V57.137h36.246zM209.9 40.376c0 6.866-5.15 14.64-21.505 14.64-16.154 0-21.404-8.077-21.404-14.842v-1.212c0-6.562 4.746-14.034 21.405-14.034 16.457 0 21.505 7.473 21.505 14.034v1.414zM185.972 1c-50.785 0-58.458 21.605-58.458 37.357v3.027c0 15.447 7.875 37.762 58.458 37.762h5.048c50.684 0 58.458-22.312 58.458-37.762v-3.027C249.478 22.605 241.805 1 191.02 1h-5.048zM264.814 77.63h38.063V40.477L322.97 77.63h18.273l20.195-37.154V77.63H399.6V2.514h-48.16l-18.375 33.42-17.668-33.42h-50.583z"></path>
    <g>
        <path d="M713.09 168.793h38.365v-26.15l42.506-48.967h-40.687l-19.588 22.615-19.283-22.614H670.18l42.91 48.463v26.653zm-116.078-24.03h21.404c10.803 0 14.54 4.947 14.54 12.622v9.086c0 1.11 0 1.818.503 2.323h39.478v-.605c-.81-1.516-1.312-3.23-1.312-6.967v-11.41c0-9.792-5.756-16.557-17.77-18.876 6.865-1.414 17.365-6.16 17.365-17.367v-.907c0-14.942-13.43-18.98-29.58-18.98h-82.993v75.117h38.367v-24.03h-.002v-.003zm0-21.1v-9.49h27.97c5.145 0 6.964 1.92 6.964 4.746 0 2.726-1.715 4.744-6.965 4.744h-27.968zm-138.19-29.987v75.117h90.968V147.59h-53.21v-6.46h52.2V120.53h-52.2v-5.854h52.806v-21l-90.565-.002zm-96.463 0v75.117h87.962v-26.755H400.72V93.676h-38.36zm-96.943 0v75.117h88.263v-26.755h-49.896V93.676h-38.367zm-51.105 75.117h42.81l-37.66-75.117h-53.915l-35.438 75.117h38.77l3.936-8.986h37.56l3.936 8.986zm-13.73-31.197h-18.174l8.986-20.8 9.187 20.8zm-144.09 32.71c23.525 0 32.41-7.167 34.832-9.39 1.92 1.92 3.837 5.756 4.544 7.877h25.746v-42.708H60.63v15.347h20.295c0 2.02-4.038 6.664-18.98 6.664-14.944 0-20.598-7.472-20.598-16.86v-.91c0-9.086 5.957-15.446 20.9-15.446 16.66 0 19.183 5.25 19.688 7.168h39.174v-.104c0-10.903-5.05-29.784-58.257-29.784h-3.23C13.38 92.162 1.87 110.336 1.87 129.418v3.028c0 17.265 9.996 37.86 51.997 37.86h2.625z"></path>
    </g>
</svg>