<?xml version="1.0" encoding="utf-8"?>
<!-- Svg Vector Icons : http://www.onlinewebfonts.com/icon -->
<!DOCTYPE svg PUBLIC "-//W3C//DTD SVG 1.1//EN" "http://www.w3.org/Graphics/SVG/1.1/DTD/svg11.dtd">
<svg version="1.1" xmlns="http://www.w3.org/2000/svg" xmlns:xlink="http://www.w3.org/1999/xlink" x="0px" y="0px" viewBox="0 0 1000 1000" enable-background="new 0 0 1000 1000" xml:space="preserve">
<metadata> Svg Vector Icons : http://www.onlinewebfonts.com/icon </metadata>
<g><g transform="matrix(1 0 0 -1 0 1952)"><path d="M951.4,1091.1l-264.3,255.4l5.4,4.1c54.4,63.7,85.6,145.7,85.6,234.1C778.1,1782,617.9,1942,410,1942c-207.9,0-373.5-160-373.5-357.4c0-197.4,165.7-363.2,373.5-363.2c51.6,0,100.3,10.2,144.4,28.6l6,4.6l274.1-280.5c16.1-16.1,42.3-16.1,58.5,0l58.5,58.5C967.6,1048.7,967.6,1074.9,951.4,1091.1L951.4,1091.1z M409.3,1350.3c-135,0-242.6,103.9-242.6,232.1c0,128.1,107.6,232,242.6,232c135,0,239.8-103.9,239.8-232S544.3,1350.3,409.3,1350.3L409.3,1350.3z"/></g></g>
</svg>